PathFileType	4	(X/Y/Z)	SB25.trc
DataRate	CameraRate	NumFrames	NumMarkers	Units	OrigDataRate	OrigDataStartFrame	OrigNumFrames
60.0	60.0	5	25	m	60.0	332	531
Frame#	Time	R.ASIS			L.ASIS			V.Sacral			R.Knee.Lat			R.Knee.Med			L.Knee.Lat			L.Knee.Med			R.Ankle.Lat			R.Ankle.Med			L.Ankle.Lat			L.Ankle.Med			R.Shank.Front			L.Shank.Front			R.Heel			L.Heel			R.Toe.Tip			L.Toe.Tip			R.Midfoot.Lat			L.Midfoot.Lat			R.Toe.Med			L.Toe.Med			Sternum			Top.Head			R.Acromium			L.Acromium		
		X1	Y1	Z1	X2	Y2	Z2	X3	Y3	Z3	X4	Y4	Z4	X5	Y5	Z5	X6	Y6	Z6	X7	Y7	Z7	X8	Y8	Z8	X9	Y9	Z9	X10	Y10	Z10	X11	Y11	Z11	X12	Y12	Z12	X13	Y13	Z13	X14	Y14	Z14	X15	Y15	Z15	X16	Y16	Z16	X17	Y17	Z17	X18	Y18	Z18	X19	Y19	Z19	X20	Y20	Z20	X21	Y21	Z21	X22	Y22	Z22	X23	Y23	Z23	X24	Y24	Z24	X25	Y25	Z25

332	5.516667	37.688738	0.920849	0.318203	37.740262	0.920849	0.003676	37.564119	0.827041	0.135699	37.919838	0.425007	0.240932	37.914730	0.432665	0.153748	37.520946	0.342686	0.058943	37.515626	0.356087	0.143206	37.897835	0.013401	0.194003	37.889702	0.019144	0.132682	37.103904	0.358002	0.067276	37.103486	0.365659	0.129014	37.968437	0.402034	0.182846	37.492579	0.298654	0.110043	37.823271	-0.084236	0.159065	37.067611	0.459467	0.131620	38.110684	-0.143584	0.181910	36.925257	0.235477	0.253424	38.004519	-0.122525	0.219660	36.942675	0.315884	0.171142	38.012030	-0.122525	0.127575	37.001074	0.315884	0.243727	37.748288	1.366915	0.185865	37.631279	1.723002	0.176998	37.594358	1.334369	0.333948	37.709081	1.349685	-0.020519
333	5.533333	37.812004	0.918934	0.314764	37.871350	0.922763	0.002428	37.692392	0.828955	0.129445	37.990024	0.388633	0.221223	37.987523	0.400119	0.134770	37.681548	0.336943	0.047684	37.675497	0.348429	0.134554	38.034868	-0.021059	0.156463	38.025067	-0.015316	0.096080	37.274934	0.434579	0.058937	37.275454	0.442237	0.122344	38.045505	0.373317	0.163659	37.642961	0.298654	0.100139	37.967917	-0.118696	0.119439	37.262836	0.541788	0.127245	38.258042	-0.156985	0.127580	37.077099	0.350344	0.238306	38.153025	-0.149327	0.171274	37.111098	0.425007	0.162073	38.156260	-0.143584	0.079398	37.165221	0.411606	0.234866	37.889283	1.359257	0.194420	37.786040	1.723002	0.186596	37.729200	1.330540	0.339374	37.856959	1.351599	-0.011443
334	5.550000	37.937878	0.915106	0.312056	37.999832	0.922763	0.000449	37.818057	0.828955	0.122460	38.056872	0.358002	0.203392	38.056978	0.375232	0.117668	37.848302	0.329285	0.039553	37.841313	0.338857	0.124755	38.127684	-0.047861	0.126222	38.116944	-0.040203	0.064171	37.461607	0.495842	0.054979	37.465465	0.501585	0.116508	38.117568	0.346515	0.147287	37.804501	0.300568	0.090548	38.066677	-0.143584	0.088051	37.458060	0.604965	0.122869	38.356594	-0.166557	0.091917	37.245313	0.434579	0.224961	38.254183	-0.166557	0.136340	37.290679	0.507328	0.153317	38.255750	-0.160814	0.045402	37.344803	0.484355	0.226110	38.026003	1.355428	0.203183	37.933918	1.721088	0.195672	37.865711	1.324797	0.343862	37.995347	1.353514	-0.003618
335	5.566667	38.062084	0.913191	0.310286	38.125705	0.920849	-0.002260	37.942263	0.828955	0.120690	38.125805	0.340772	0.193174	38.128519	0.358002	0.108180	38.026945	0.325456	0.029128	38.018288	0.333114	0.115269	38.157510	-0.070835	0.105052	38.146770	-0.059348	0.043001	37.662776	0.541788	0.049456	37.665903	0.545617	0.113592	38.184833	0.321627	0.138007	37.976261	0.304397	0.079602	38.101718	-0.160814	0.068342	37.654953	0.650912	0.117555	38.391530	-0.174215	0.087642	37.428024	0.488184	0.210052	38.287242	-0.176129	0.128728	37.483818	0.560933	0.141328	38.292146	-0.172300	0.035913	37.531997	0.536045	0.215269	38.156570	1.351599	0.208817	38.068969	1.719173	0.205374	37.999824	1.317139	0.351895	38.119031	1.357343	0.001495
336	5.583333	38.188896	0.911277	0.309246	38.249181	0.918934	-0.001422	38.065738	0.828955	0.121527	38.191610	0.327370	0.189108	38.196931	0.344600	0.104844	38.211533	0.327370	0.017557	38.201207	0.331199	0.104636	38.142181	-0.078492	0.089513	38.134986	-0.065091	0.029861	37.866761	0.572420	0.048939	37.868949	0.572420	0.111407	38.245423	0.300568	0.132481	38.160848	0.310140	0.068030	38.089204	-0.168471	0.057809	37.852785	0.681543	0.113909	38.376721	-0.176129	0.100364	37.626168	0.511157	0.195248	38.269409	-0.176129	0.132169	37.682902	0.585821	0.128193	38.283803	-0.179958	0.040606	37.728682	0.564762	0.205679	38.283590	1.349685	0.212053	38.195468	1.717259	0.215492	38.133936	1.309482	0.359928	38.234893	1.363086	0.004417
